Coordinates
version=1
nRows=8
nColumns=46
inDegrees=yes

Units are S.I. units (second, meters, Newtons, ...)
Angles are in degrees.

endheader
time	pelvis_tilt	pelvis_list	pelvis_rotation	pelvis_tx	pelvis_ty	pelvis_tz	bb_angle	bb_tx	bb_ty	bb_tz	hip_flexion_r	hip_adduction_r	hip_rotation_r	knee_angle_r	knee_angle_r_beta	ankle_angle_r	subtalar_angle_r	mtp_angle_r	crank_angle_r	hip_flexion_l	hip_adduction_l	hip_rotation_l	knee_angle_l	knee_angle_l_beta	ankle_angle_l	subtalar_angle_l	mtp_angle_l	crank_angle_l	lumbar_extension	lumbar_bending	lumbar_rotation	arm_flex_r	arm_add_r	arm_rot_r	elbow_flex_r	pro_sup_r	wrist_flex_r	wrist_dev_r	arm_flex_l	arm_add_l	arm_rot_l	elbow_flex_l	pro_sup_l	wrist_flex_l	wrist_dev_l
      2.50000000	    -16.73088813	      6.90170875	      7.46165982	      0.34743524	      1.23780834	     -0.23445041	      0.00000000	      0.50000000	      0.00000000	      0.25000000	     23.71256542	    -15.48502789	    -14.66672521	     25.80670424	      0.45041196	    -31.79992733	      1.21043573	      0.00000000	      0.00000000	     72.31892787	     -8.04627889	     -5.91608943	    100.82280072	      1.75968983	      6.53306436	     14.19642553	      0.00000000	      0.00000000	    -55.78539199	     -6.53108023	     -4.64895648	     70.04312787	     -9.84132104	     34.32891717	     22.60054498	     37.25653904	      0.00000000	      0.00000000	     80.45408558	      1.71827332	     63.53202431	     14.62853794	     39.45034402	      0.00000000	      0.00000000
      2.50500000	    -16.99618560	      6.80847711	      7.70698660	      0.34657187	      1.24021374	     -0.23422408	      0.00000000	      0.50000000	      0.00000000	      0.25000000	     23.98271469	    -15.50733716	    -14.46385869	     26.62508892	      0.46469547	    -31.76658561	      0.84555091	      0.00000000	      0.00000000	     72.45561772	     -7.55509716	     -5.88534596	     99.63619266	      1.73897962	      7.18639030	     14.21303860	      0.00000000	      0.00000000	    -55.90500166	     -6.63861117	     -4.22379028	     69.93475949	    -11.16135303	     35.69178067	     23.38098378	     37.59112298	      0.00000000	      0.00000000	     80.15663877	      3.80092584	     56.73411314	     14.71566104	     36.80860161	      0.00000000	      0.00000000
      2.51000000	    -17.18280014	      6.65192919	      7.87505446	      0.34584981	      1.24250967	     -0.23390196	      0.00000000	      0.50000000	      0.00000000	      0.25000000	     24.26819450	    -15.43832098	    -14.19090987	     27.61113383	      0.48190520	    -31.53339332	      0.41852649	      0.00000000	      0.00000000	     72.43787028	     -7.16475301	     -5.80272742	     98.39810710	      1.71737095	      7.94979740	     14.20252328	      0.00000000	      0.00000000	    -56.04594979	     -6.63981742	     -4.04661688	     70.18292562	    -11.38916968	     35.59786822	     23.23164483	     37.54639071	      0.00000000	      0.00000000	     80.31847098	      4.06446739	     56.67851561	     14.97043758	     36.80527770	      0.00000000	      0.00000000
      2.51500000	    -17.47945282	      6.59675029	      8.09031961	      0.34502369	      1.24449226	     -0.23381078	      0.00000000	      0.50000000	      0.00000000	      0.25000000	     24.80357975	    -15.52935705	    -13.83155063	     28.94412825	      0.50517034	    -30.86590435	     -0.06846234	      0.00000000	      0.00000000	     72.40863555	     -6.64198019	     -5.82585338	     97.02690874	      1.69343902	      8.60953727	     14.24688645	      0.00000000	      0.00000000	    -56.06053057	     -6.74674556	     -3.83394801	     70.25345154	    -11.77686357	     35.42687505	     22.98298715	     37.47526058	      0.00000000	      0.00000000	     80.44143531	      4.48189049	     56.52023895	     15.28261394	     36.76904741	      0.00000000	      0.00000000
      2.52000000	    -17.80549096	      6.48233995	      8.36286941	      0.34422250	      1.24633137	     -0.23373336	      0.00000000	      0.50000000	      0.00000000	      0.25000000	     25.39643523	    -15.57741649	    -13.43144235	     30.40034241	      0.53058607	    -29.93421719	     -0.42015927	      0.00000000	      0.00000000	     72.34413608	     -6.08366811	     -5.76995922	     95.55372766	      1.66772716	      9.28584415	     14.20617437	      0.00000000	      0.00000000	    -56.04919980	     -6.78143594	     -3.66222089	     70.27885873	    -12.14041525	     35.19094778	     22.84455870	     37.41203392	      0.00000000	      0.00000000	     80.52388273	      4.90250771	     56.24144842	     15.53003195	     36.68385538	      0.00000000	      0.00000000
      2.52500000	    -18.02361643	      6.47784968	      8.77310187	      0.34338550	      1.24849229	     -0.23346908	      0.00000000	      0.50000000	      0.00000000	      0.25000000	     25.89740642	    -15.79193145	    -13.20353109	     31.97310411	      0.55803594	    -28.96354355	     -0.84115821	      0.00000000	      0.00000000	     71.98686616	     -5.35098263	     -5.76017477	     93.84592859	      1.63792044	      9.94977742	     13.92354941	      0.00000000	      0.00000000	    -56.23725527	     -6.79994941	     -3.59811711	     69.89789749	    -12.23158599	     31.97246137	     23.78226559	     37.04323538	      0.00000000	      0.00000000	     80.37643461	      6.22955189	     50.95032414	     16.07807530	     34.63792357	      0.00000000	      0.00000000
      2.53000000	    -18.19867801	      6.29400336	      9.05115080	      0.34262129	      1.25017474	     -0.23362845	      0.00000000	      0.50000000	      0.00000000	      0.25000000	     26.49789972	    -15.85244899	    -13.03913093	     33.75976094	      0.58921898	    -27.97084257	     -1.38532989	      0.00000000	      0.00000000	     71.56322502	     -4.74722605	     -5.58349142	     92.15500576	      1.60840827	     10.67387735	     14.03884616	      0.00000000	      0.00000000	    -56.31349406	     -6.62659906	     -3.50178699	     70.04474528	    -12.40522467	     31.90058620	     23.62738162	     37.00718202	      0.00000000	      0.00000000	     80.47005845	      6.34649922	     50.90144395	     16.33355298	     34.63027144	      0.00000000	      0.00000000
      2.53500000	    -18.64176445	      6.02535662	      9.07047710	      0.34215805	      1.25086697	     -0.23417807	      0.00000000	      0.50000000	      0.00000000	      0.25000000	     27.60412944	    -15.84610075	    -12.64354324	     35.80336461	      0.62488660	    -26.76941693	     -1.67358251	      0.00000000	      0.00000000	     71.33714901	     -4.45809128	     -5.53781118	     90.46991158	      1.57899783	     11.57169735	     13.92241529	      0.00000000	      0.00000000	    -55.99017282	     -6.62822181	     -3.16728506	     70.00744704	    -12.65741774	     31.73545889	     23.51957828	     36.97107595	      0.00000000	      0.00000000	     80.32587209	      6.48147513	     50.72201467	     16.73622720	     34.59291707	      0.00000000	      0.00000000
